<?xml version="1.0" encoding="UTF-8"?>
<svg width="640" height="480" xmlns="http://www.w3.org/2000/svg" xmlns:xlink="http://www.w3.org/1999/xlink">
 <title>Not equal to</title>
 <defs>
  <linearGradient id="linearGradient7916">
   <stop stop-color="#ffffff" id="stop7918" offset="0"/>
   <stop stop-color="#ffffff" stop-opacity="0.340206" id="stop7920" offset="1"/>
  </linearGradient>
  <linearGradient y2="0.470932" x2="-1.575911" y1="0.470932" x1="-1.954887" gradientTransform="matrix(0.625668, -1.08692, 0.86668, 0.498864, 51.8474, 37.5228)" id="linearGradient2610" xlink:href="#linearGradient7916"/>
 </defs>
 <metadata id="metadata6436">image/svg+xmlRemove2006-01-04Andreas Nilssonhttp://tango-project.orgremovedelete</metadata>
 <g>
  <title>Layer 1</title>
  <g id="layer1">
   <g id="g2603">
    <path fill="#000000" stroke="#3465a4" stroke-width="1.11988091px" d="m368.117676,131.343781l-34.35614,40.945175l-42.601685,0l-87.493729,0.156876l-0.229019,34.983826l87.951813,0l13.055328,-0.15686l-24.049316,28.394928l-3.893707,4.549454l-72.835098,0.156891l-0.229019,34.983841l43.746841,0l-21.529846,25.727997l44.204941,17.570343l36.646576,-43.455231l36.188507,-0.470642l88.867981,0.627533l0,-35.140732l-88.867981,0l-7.100281,0l20.842743,-25.571136l6.642212,-7.687012l68.483307,0.470627l0,-35.140701l-38.937012,0l19.926605,-23.374847l-44.434021,-17.570328z" id="path2542"/>
    <path opacity="0.408602" fill="#000000" stroke="url(#linearGradient2610)" stroke-width="1.11988127px" d="m369.720978,139.501434l-31.836731,37.807632l-127.117828,0.15686l-0.22905,24.943619l106.275101,0l-35.959473,42.984634l-70.086578,0l-0.22905,24.943619l49.472885,0l-23.362183,27.767426l31.378632,12.707123l34.127136,-40.474548l121.62085,0l0,-25.10051l-100.549072,0l35.959473,-42.827744l64.5896,0l0,-25.100479l-43.288788,0l21.071808,-25.10051l-31.836731,-12.707123z" id="path2544"/>
    <path opacity="0.311828" fill="#000000" fill-rule="evenodd" stroke-width="1px" d="m206.925934,190.005692c0,9.72644 220.795685,-4.706421 220.795685,0l0,-15.060379l-42.249817,-0.59465c6.865875,-7.776276 12.999878,-14.368439 20.276184,-24.263031c-11.239777,-5.330093 -21.980347,-9.693573 -36.751251,-14.212479c-7.763489,4.327332 -21.668091,27.72583 -33.885803,39.07016l-128.184998,0l0,15.060379z" id="path2562"/>
   </g>
  </g>
 </g>
</svg>