<svg xmlns="http://www.w3.org/2000/svg" xmlns:xlink="http://www.w3.org/1999/xlink" version="1.1" x="0px" y="0px" viewBox="0 0 100 125" enable-background="new 0 0 100 100" xml:space="preserve"><g><path d="M59.763,70.673c-1.52,0-2.895-0.928-3.458-2.352l-7.07-17.891l-5.674,14.253c-0.507,1.273-1.675,2.165-3.037,2.319   c-1.369,0.165-2.699-0.454-3.478-1.58l-6.415-9.273l-5.775,6.958c-1.311,1.582-3.658,1.798-5.238,0.487   c-1.58-1.313-1.798-3.658-0.487-5.238l8.908-10.732c0.743-0.895,1.858-1.412,3.026-1.34c1.162,0.051,2.234,0.643,2.895,1.6   l5.256,7.599l6.575-16.516c0.563-1.415,1.932-2.344,3.456-2.344c0.002,0,0.004,0,0.005,0c1.524,0.002,2.893,0.934,3.454,2.352   l6.605,16.715l7.237-23.728c0.445-1.46,1.738-2.5,3.26-2.623c1.502-0.124,2.964,0.697,3.638,2.07l7.897,16.096   c0.904,1.843,0.143,4.072-1.702,4.978c-1.849,0.903-4.074,0.14-4.978-1.702l-3.747-7.64L63.323,68.04   c-0.461,1.511-1.829,2.566-3.409,2.63C59.865,70.672,59.814,70.673,59.763,70.673z"/></g><text x="0" y="115" fill="#000000" font-size="5px" font-weight="bold" font-family="'Helvetica Neue', Helvetica, Arial-Unicode, Arial, Sans-serif">Created by Vasil Enchev</text><text x="0" y="120" fill="#000000" font-size="5px" font-weight="bold" font-family="'Helvetica Neue', Helvetica, Arial-Unicode, Arial, Sans-serif">from the Noun Project</text></svg>