<?xml version="1.0" encoding="UTF-8" standalone="no"?>
<!DOCTYPE svg PUBLIC "-//W3C//DTD SVG 1.1//EN"
 "http://www.w3.org/Graphics/SVG/1.1/DTD/svg11.dtd">
<!-- Generated by graphviz version 2.36.0 (20140111.2315)
 -->
<!-- Title: models_diagram Pages: 1 -->
<svg width="782pt" height="248pt"
 viewBox="0.00 0.00 782.00 248.00" xmlns="http://www.w3.org/2000/svg" xmlns:xlink="http://www.w3.org/1999/xlink">
<g id="graph0" class="graph" transform="scale(1 1) rotate(0) translate(4 244)">
<title>models_diagram</title>
<polygon fill="white" stroke="none" points="-4,4 -4,-244 778,-244 778,4 -4,4"/>
<!-- _diagram_info -->
<g id="node1" class="node"><title>_diagram_info</title>
<text text-anchor="start" x="8" y="-225.6" font-family="Times,serif" font-size="13.00">Models diagram</text>
<text text-anchor="start" x="8" y="-211.6" font-family="Times,serif" font-size="13.00">Date: Nov 10 2014 &#45; 18:55</text>
<text text-anchor="start" x="8" y="-197.6" font-family="Times,serif" font-size="13.00">Migration version: 20141110164941</text>
<text text-anchor="start" x="8" y="-183.6" font-family="Times,serif" font-size="13.00">Generated by RailRoady 1.2.0</text>
<text text-anchor="start" x="8" y="-169.6" font-family="Times,serif" font-size="13.00">http://railroady.prestonlee.com</text>
</g>
<!-- Specialty -->
<g id="node2" class="node"><title>Specialty</title>
<ellipse fill="none" stroke="black" cx="276" cy="-201" rx="43.319" ry="18"/>
<text text-anchor="middle" x="276" y="-197.3" font-family="Times,serif" font-size="14.00">Specialty</text>
</g>
<!-- Doctor -->
<g id="node4" class="node"><title>Doctor</title>
<ellipse fill="none" stroke="black" cx="507" cy="-106" rx="35.1455" ry="18"/>
<text text-anchor="middle" x="507" y="-102.3" font-family="Times,serif" font-size="14.00">Doctor</text>
</g>
<!-- Specialty&#45;&gt;Doctor -->
<g id="edge1" class="edge"><title>Specialty&#45;&gt;Doctor</title>
<path fill="none" stroke="#cf4ed2" d="M300.893,-179.216C309.147,-173.05 318.629,-166.697 328,-162 372.499,-139.698 427.797,-124.399 465.06,-115.704"/>
<ellipse fill="none" stroke="#cf4ed2" cx="297.447" cy="-181.87" rx="4.00002" ry="4.00002"/>
<polygon fill="#cf4ed2" stroke="#cf4ed2" points="465.317,-115.646 476.067,-117.815 470.193,-114.536 475.068,-113.427 475.068,-113.427 475.068,-113.427 470.193,-114.536 474.069,-109.039 465.317,-115.646 465.317,-115.646"/>
</g>
<!-- Qualification -->
<g id="node3" class="node"><title>Qualification</title>
<ellipse fill="none" stroke="black" cx="255" cy="-18" rx="57.2927" ry="18"/>
<text text-anchor="middle" x="255" y="-14.3" font-family="Times,serif" font-size="14.00">Qualification</text>
</g>
<!-- Doctor&#45;&gt;Qualification -->
<g id="edge2" class="edge"><title>Doctor&#45;&gt;Qualification</title>
<path fill="none" stroke="#9eaa2d" d="M470.997,-92.7133C426.583,-77.5559 350.961,-51.7487 302.006,-35.0416"/>
<ellipse fill="none" stroke="#9eaa2d" cx="474.797" cy="-94.0099" rx="4.00001" ry="4.00001"/>
<polygon fill="#9eaa2d" stroke="#9eaa2d" points="301.75,-34.9545 293.74,-27.4658 297.018,-33.3396 292.286,-31.7247 292.286,-31.7247 292.286,-31.7247 297.018,-33.3396 290.833,-35.9835 301.75,-34.9545 301.75,-34.9545"/>
</g>
<!-- ActsAsTaggableOn::Tagging -->
<g id="node9" class="node"><title>ActsAsTaggableOn::Tagging</title>
<ellipse fill="none" stroke="black" cx="445" cy="-18" rx="114.085" ry="18"/>
<text text-anchor="middle" x="445" y="-14.3" font-family="Times,serif" font-size="14.00">ActsAsTaggableOn::Tagging</text>
</g>
<!-- Doctor&#45;&gt;ActsAsTaggableOn::Tagging -->
<g id="edge3" class="edge"><title>Doctor&#45;&gt;ActsAsTaggableOn::Tagging</title>
<path fill="none" stroke="#f4e6d2" d="M468.579,-93.9579C457.046,-88.6508 445.693,-80.9721 439,-70 434.691,-62.936 434.295,-54.2906 435.541,-46.1389"/>
<ellipse fill="none" stroke="#f4e6d2" cx="472.445" cy="-95.5723" rx="4.00002" ry="4.00002"/>
<polygon fill="#f4e6d2" stroke="#f4e6d2" points="435.579,-45.9777 442.212,-37.2456 436.703,-41.1057 437.827,-36.2337 437.827,-36.2337 437.827,-36.2337 436.703,-41.1057 433.442,-35.2218 435.579,-45.9777 435.579,-45.9777"/>
<text text-anchor="middle" x="462" y="-58.3" font-family="Times,serif" font-size="14.00">taggings</text>
</g>
<!-- Doctor&#45;&gt;ActsAsTaggableOn::Tagging -->
<g id="edge5" class="edge"><title>Doctor&#45;&gt;ActsAsTaggableOn::Tagging</title>
<path fill="none" stroke="#a49406" d="M498.885,-80.2248C495.375,-71.4826 490.738,-61.8767 485,-54 482.161,-50.1031 478.815,-46.3389 475.286,-42.8156"/>
<ellipse fill="none" stroke="#a49406" cx="500.38" cy="-84.1932" rx="4.00001" ry="4.00001"/>
<polygon fill="#a49406" stroke="#a49406" points="475.224,-42.7574 470.953,-32.6574 471.558,-39.3569 467.892,-35.9564 467.892,-35.9564 467.892,-35.9564 471.558,-39.3569 464.832,-39.2555 475.224,-42.7574 475.224,-42.7574"/>
<text text-anchor="middle" x="529" y="-58.3" font-family="Times,serif" font-size="14.00">tag_taggings</text>
</g>
<!-- ActsAsTaggableOn::Tag -->
<g id="node10" class="node"><title>ActsAsTaggableOn::Tag</title>
<ellipse fill="none" stroke="black" cx="676" cy="-18" rx="98.1881" ry="18"/>
<text text-anchor="middle" x="676" y="-14.3" font-family="Times,serif" font-size="14.00">ActsAsTaggableOn::Tag</text>
</g>
<!-- Doctor&#45;&gt;ActsAsTaggableOn::Tag -->
<g id="edge4" class="edge"><title>Doctor&#45;&gt;ActsAsTaggableOn::Tag</title>
<path fill="none" stroke="#86b931" d="M538.927,-87.0556C557,-77.0548 580.104,-64.532 601,-54 610.824,-49.0485 621.48,-43.9281 631.592,-39.1828"/>
<polygon fill="#86b931" stroke="#86b931" points="538.713,-87.1741 527.786,-88.0981 534.343,-89.6029 529.972,-92.0316 529.972,-92.0316 529.972,-92.0316 534.343,-89.6029 532.158,-95.9651 538.713,-87.1741 538.713,-87.1741"/>
<polygon fill="#86b931" stroke="#86b931" points="631.621,-39.1692 642.586,-39.0249 636.153,-37.0576 640.686,-34.9459 640.686,-34.9459 640.686,-34.9459 636.153,-37.0576 638.785,-30.8669 631.621,-39.1692 631.621,-39.1692"/>
<text text-anchor="middle" x="627.5" y="-58.3" font-family="Times,serif" font-size="14.00">base_tags</text>
</g>
<!-- Doctor&#45;&gt;ActsAsTaggableOn::Tag -->
<g id="edge6" class="edge"><title>Doctor&#45;&gt;ActsAsTaggableOn::Tag</title>
<path fill="none" stroke="#2625a7" d="M552.461,-104.538C584.192,-101.947 625.755,-93.7248 654,-70 661.403,-63.7815 666.382,-54.6107 669.7,-45.7541"/>
<polygon fill="#2625a7" stroke="#2625a7" points="552.089,-104.563 541.816,-100.725 547.1,-104.889 542.11,-105.216 542.11,-105.216 542.11,-105.216 547.1,-104.889 542.404,-109.706 552.089,-104.563 552.089,-104.563"/>
<polygon fill="#2625a7" stroke="#2625a7" points="669.751,-45.5925 677.07,-37.4258 671.266,-40.8275 672.781,-36.0625 672.781,-36.0625 672.781,-36.0625 671.266,-40.8275 668.493,-34.6991 669.751,-45.5925 669.751,-45.5925"/>
<text text-anchor="middle" x="676" y="-58.3" font-family="Times,serif" font-size="14.00">tags</text>
</g>
<!-- Organisation -->
<g id="node5" class="node"><title>Organisation</title>
<ellipse fill="none" stroke="black" cx="393" cy="-201" rx="55.3436" ry="18"/>
<text text-anchor="middle" x="393" y="-197.3" font-family="Times,serif" font-size="14.00">Organisation</text>
</g>
<!-- Organisation&#45;&gt;Doctor -->
<g id="edge7" class="edge"><title>Organisation&#45;&gt;Doctor</title>
<path fill="none" stroke="#b7f4f5" d="M418.963,-178.82C437.652,-163.573 462.746,-143.102 481.361,-127.916"/>
<ellipse fill="none" stroke="#b7f4f5" cx="415.697" cy="-181.484" rx="4.00002" ry="4.00002"/>
<polygon fill="#b7f4f5" stroke="#b7f4f5" points="481.408,-127.877 492.002,-125.043 485.283,-124.717 489.157,-121.556 489.157,-121.556 489.157,-121.556 485.283,-124.717 486.313,-118.069 481.408,-127.877 481.408,-127.877"/>
</g>
<!-- Country -->
<g id="node6" class="node"><title>Country</title>
<ellipse fill="none" stroke="black" cx="507" cy="-201" rx="39.4691" ry="18"/>
<text text-anchor="middle" x="507" y="-197.3" font-family="Times,serif" font-size="14.00">Country</text>
</g>
<!-- Country&#45;&gt;Doctor -->
<g id="edge8" class="edge"><title>Country&#45;&gt;Doctor</title>
<path fill="none" stroke="#73b70e" d="M507,-174.562C507,-162.078 507,-147.025 507,-134.299"/>
<ellipse fill="none" stroke="#73b70e" cx="507" cy="-178.942" rx="4" ry="4"/>
<polygon fill="#73b70e" stroke="#73b70e" points="507,-134.264 511.5,-124.264 507,-129.264 507,-124.264 507,-124.264 507,-124.264 507,-129.264 502.5,-124.264 507,-134.264 507,-134.264"/>
</g>
<!-- City -->
<g id="node7" class="node"><title>City</title>
<ellipse fill="none" stroke="black" cx="592" cy="-201" rx="27" ry="18"/>
<text text-anchor="middle" x="592" y="-197.3" font-family="Times,serif" font-size="14.00">City</text>
</g>
<!-- City&#45;&gt;Doctor -->
<g id="edge9" class="edge"><title>City&#45;&gt;Doctor</title>
<path fill="none" stroke="#876ccb" d="M572.87,-179.07C559.516,-164.459 541.695,-144.96 527.956,-129.929"/>
<ellipse fill="none" stroke="#876ccb" cx="575.645" cy="-182.105" rx="4.00002" ry="4.00002"/>
<polygon fill="#876ccb" stroke="#876ccb" points="527.936,-129.907 524.511,-119.489 524.563,-126.216 521.19,-122.525 521.19,-122.525 521.19,-122.525 524.563,-126.216 517.868,-125.561 527.936,-129.907 527.936,-129.907"/>
</g>
<!-- FellowType -->
<g id="node8" class="node"><title>FellowType</title>
<ellipse fill="none" stroke="black" cx="690" cy="-201" rx="52.9443" ry="18"/>
<text text-anchor="middle" x="690" y="-197.3" font-family="Times,serif" font-size="14.00">FellowType</text>
</g>
<!-- FellowType&#45;&gt;Doctor -->
<g id="edge10" class="edge"><title>FellowType&#45;&gt;Doctor</title>
<path fill="none" stroke="#2f6979" d="M659.577,-180.324C649.659,-174.19 638.497,-167.575 628,-162 599.934,-147.093 567.047,-132.308 542.648,-121.827"/>
<ellipse fill="none" stroke="#2f6979" cx="663.16" cy="-182.564" rx="4.00002" ry="4.00002"/>
<polygon fill="#2f6979" stroke="#2f6979" points="542.612,-121.812 535.176,-113.751 538.012,-119.851 533.412,-117.891 533.412,-117.891 533.412,-117.891 538.012,-119.851 531.648,-122.031 542.612,-121.812 542.612,-121.812"/>
</g>
</g>
</svg>
