<?xml version="1.0" encoding="UTF-8" standalone="no"?>
<!DOCTYPE svg PUBLIC "-//W3C//DTD SVG 1.1//EN"
 "http://www.w3.org/Graphics/SVG/1.1/DTD/svg11.dtd">
<!-- Generated by graphviz version 2.36.0 (20140111.2315)
 -->
<!-- Title: models_diagram Pages: 1 -->
<svg width="967pt" height="556pt"
 viewBox="0.00 0.00 967.00 556.00" xmlns="http://www.w3.org/2000/svg" xmlns:xlink="http://www.w3.org/1999/xlink">
<g id="graph0" class="graph" transform="scale(1 1) rotate(0) translate(4 552)">
<title>models_diagram</title>
<polygon fill="white" stroke="none" points="-4,4 -4,-552 963,-552 963,4 -4,4"/>
<!-- _diagram_info -->
<g id="node1" class="node"><title>_diagram_info</title>
<text text-anchor="start" x="8" y="-518.6" font-family="Times,serif" font-size="13.00">Models diagram</text>
<text text-anchor="start" x="8" y="-504.6" font-family="Times,serif" font-size="13.00">Date: Nov 10 2014 &#45; 18:55</text>
<text text-anchor="start" x="8" y="-490.6" font-family="Times,serif" font-size="13.00">Migration version: 20141110164941</text>
<text text-anchor="start" x="8" y="-476.6" font-family="Times,serif" font-size="13.00">Generated by RailRoady 1.2.0</text>
<text text-anchor="start" x="8" y="-462.6" font-family="Times,serif" font-size="13.00">http://railroady.prestonlee.com</text>
</g>
<!-- Specialty -->
<g id="node2" class="node"><title>Specialty</title>
<path fill="none" stroke="black" d="M244.5,-448.5C244.5,-448.5 351.5,-448.5 351.5,-448.5 357.5,-448.5 363.5,-454.5 363.5,-460.5 363.5,-460.5 363.5,-527.5 363.5,-527.5 363.5,-533.5 357.5,-539.5 351.5,-539.5 351.5,-539.5 244.5,-539.5 244.5,-539.5 238.5,-539.5 232.5,-533.5 232.5,-527.5 232.5,-527.5 232.5,-460.5 232.5,-460.5 232.5,-454.5 238.5,-448.5 244.5,-448.5"/>
<text text-anchor="middle" x="298" y="-524.3" font-family="Times,serif" font-size="14.00">Specialty</text>
<polyline fill="none" stroke="black" points="232.5,-516.5 363.5,-516.5 "/>
<text text-anchor="start" x="240.5" y="-501.3" font-family="Times,serif" font-size="14.00">id :integer</text>
<text text-anchor="start" x="240.5" y="-486.3" font-family="Times,serif" font-size="14.00">name :string</text>
<text text-anchor="start" x="240.5" y="-471.3" font-family="Times,serif" font-size="14.00">created_at :datetime</text>
<text text-anchor="start" x="240.5" y="-456.3" font-family="Times,serif" font-size="14.00">updated_at :datetime</text>
</g>
<!-- Doctor -->
<g id="node4" class="node"><title>Doctor</title>
<path fill="none" stroke="black" d="M535,-160.5C535,-160.5 657,-160.5 657,-160.5 663,-160.5 669,-166.5 669,-172.5 669,-172.5 669,-389.5 669,-389.5 669,-395.5 663,-401.5 657,-401.5 657,-401.5 535,-401.5 535,-401.5 529,-401.5 523,-395.5 523,-389.5 523,-389.5 523,-172.5 523,-172.5 523,-166.5 529,-160.5 535,-160.5"/>
<text text-anchor="middle" x="596" y="-386.3" font-family="Times,serif" font-size="14.00">Doctor</text>
<polyline fill="none" stroke="black" points="523,-378.5 669,-378.5 "/>
<text text-anchor="start" x="531" y="-363.3" font-family="Times,serif" font-size="14.00">id :integer</text>
<text text-anchor="start" x="531" y="-348.3" font-family="Times,serif" font-size="14.00">title :string</text>
<text text-anchor="start" x="531" y="-333.3" font-family="Times,serif" font-size="14.00">first_name :string</text>
<text text-anchor="start" x="531" y="-318.3" font-family="Times,serif" font-size="14.00">middle_name :string</text>
<text text-anchor="start" x="531" y="-303.3" font-family="Times,serif" font-size="14.00">last_name :string</text>
<text text-anchor="start" x="531" y="-288.3" font-family="Times,serif" font-size="14.00">email :string</text>
<text text-anchor="start" x="531" y="-273.3" font-family="Times,serif" font-size="14.00">fellow_type_id :integer</text>
<text text-anchor="start" x="531" y="-258.3" font-family="Times,serif" font-size="14.00">gender :string</text>
<text text-anchor="start" x="531" y="-243.3" font-family="Times,serif" font-size="14.00">specialty_id :integer</text>
<text text-anchor="start" x="531" y="-228.3" font-family="Times,serif" font-size="14.00">city_id :integer</text>
<text text-anchor="start" x="531" y="-213.3" font-family="Times,serif" font-size="14.00">country_id :integer</text>
<text text-anchor="start" x="531" y="-198.3" font-family="Times,serif" font-size="14.00">created_at :datetime</text>
<text text-anchor="start" x="531" y="-183.3" font-family="Times,serif" font-size="14.00">updated_at :datetime</text>
<text text-anchor="start" x="531" y="-168.3" font-family="Times,serif" font-size="14.00">organisation_id :integer</text>
</g>
<!-- Specialty&#45;&gt;Doctor -->
<g id="edge1" class="edge"><title>Specialty&#45;&gt;Doctor</title>
<path fill="none" stroke="#b4e82a" d="M366.871,-443.648C368.598,-442.419 370.309,-441.202 372,-440 419.093,-406.528 471.898,-369.268 514.406,-339.342"/>
<ellipse fill="none" stroke="#b4e82a" cx="363.412" cy="-446.113" rx="4.00002" ry="4.00002"/>
<polygon fill="#b4e82a" stroke="#b4e82a" points="514.588,-339.213 525.356,-337.137 518.677,-336.335 522.765,-333.457 522.765,-333.457 522.765,-333.457 518.677,-336.335 520.175,-329.778 514.588,-339.213 514.588,-339.213"/>
</g>
<!-- Qualification -->
<g id="node3" class="node"><title>Qualification</title>
<path fill="none" stroke="black" d="M282.5,-1C282.5,-1 389.5,-1 389.5,-1 395.5,-1 401.5,-7 401.5,-13 401.5,-13 401.5,-95 401.5,-95 401.5,-101 395.5,-107 389.5,-107 389.5,-107 282.5,-107 282.5,-107 276.5,-107 270.5,-101 270.5,-95 270.5,-95 270.5,-13 270.5,-13 270.5,-7 276.5,-1 282.5,-1"/>
<text text-anchor="middle" x="336" y="-91.8" font-family="Times,serif" font-size="14.00">Qualification</text>
<polyline fill="none" stroke="black" points="270.5,-84 401.5,-84 "/>
<text text-anchor="start" x="278.5" y="-68.8" font-family="Times,serif" font-size="14.00">id :integer</text>
<text text-anchor="start" x="278.5" y="-53.8" font-family="Times,serif" font-size="14.00">name :string</text>
<text text-anchor="start" x="278.5" y="-38.8" font-family="Times,serif" font-size="14.00">doctor_id :integer</text>
<text text-anchor="start" x="278.5" y="-23.8" font-family="Times,serif" font-size="14.00">created_at :datetime</text>
<text text-anchor="start" x="278.5" y="-8.8" font-family="Times,serif" font-size="14.00">updated_at :datetime</text>
</g>
<!-- Doctor&#45;&gt;Qualification -->
<g id="edge2" class="edge"><title>Doctor&#45;&gt;Qualification</title>
<path fill="none" stroke="#239edf" d="M516.731,-211.401C480.719,-180.237 438.547,-143.742 404.001,-113.847"/>
<ellipse fill="none" stroke="#239edf" cx="519.859" cy="-214.109" rx="4.00002" ry="4.00002"/>
<polygon fill="#239edf" stroke="#239edf" points="403.862,-113.727 399.245,-103.78 400.081,-110.455 396.3,-107.183 396.3,-107.183 396.3,-107.183 400.081,-110.455 393.355,-110.586 403.862,-113.727 403.862,-113.727"/>
</g>
<!-- ActsAsTaggableOn::Tagging -->
<g id="node9" class="node"><title>ActsAsTaggableOn::Tagging</title>
<ellipse fill="none" stroke="black" cx="534" cy="-54" rx="114.085" ry="18"/>
<text text-anchor="middle" x="534" y="-50.3" font-family="Times,serif" font-size="14.00">ActsAsTaggableOn::Tagging</text>
</g>
<!-- Doctor&#45;&gt;ActsAsTaggableOn::Tagging -->
<g id="edge3" class="edge"><title>Doctor&#45;&gt;ActsAsTaggableOn::Tagging</title>
<path fill="none" stroke="#e77841" d="M530.769,-152.631C529.751,-149.082 528.823,-145.534 528,-142 523.419,-122.341 525.238,-99.5606 528.032,-82.2429"/>
<ellipse fill="none" stroke="#e77841" cx="531.972" cy="-156.575" rx="4.00001" ry="4.00001"/>
<polygon fill="#e77841" stroke="#e77841" points="528.061,-82.0817 534.277,-73.0476 528.955,-77.1623 529.849,-72.2429 529.849,-72.2429 529.849,-72.2429 528.955,-77.1623 525.422,-71.4381 528.061,-82.0817 528.061,-82.0817"/>
<text text-anchor="middle" x="551" y="-130.3" font-family="Times,serif" font-size="14.00">taggings</text>
</g>
<!-- Doctor&#45;&gt;ActsAsTaggableOn::Tagging -->
<g id="edge5" class="edge"><title>Doctor&#45;&gt;ActsAsTaggableOn::Tagging</title>
<path fill="none" stroke="#d9cecb" d="M581.579,-152.438C579.399,-143.399 576.889,-134.505 574,-126 568.565,-110 559.494,-93.475 551.364,-80.3977"/>
<ellipse fill="none" stroke="#d9cecb" cx="582.516" cy="-156.514" rx="4.00001" ry="4.00001"/>
<polygon fill="#d9cecb" stroke="#d9cecb" points="551.34,-80.3611 549.729,-69.5142 548.641,-76.1524 545.941,-71.9437 545.941,-71.9437 545.941,-71.9437 548.641,-76.1524 542.153,-74.3733 551.34,-80.3611 551.34,-80.3611"/>
<text text-anchor="middle" x="613" y="-130.3" font-family="Times,serif" font-size="14.00">tag_taggings</text>
</g>
<!-- ActsAsTaggableOn::Tag -->
<g id="node10" class="node"><title>ActsAsTaggableOn::Tag</title>
<ellipse fill="none" stroke="black" cx="765" cy="-54" rx="98.1881" ry="18"/>
<text text-anchor="middle" x="765" y="-50.3" font-family="Times,serif" font-size="14.00">ActsAsTaggableOn::Tag</text>
</g>
<!-- Doctor&#45;&gt;ActsAsTaggableOn::Tag -->
<g id="edge4" class="edge"><title>Doctor&#45;&gt;ActsAsTaggableOn::Tag</title>
<path fill="none" stroke="#f8c5be" d="M670.527,-151.855C676.843,-142.913 683.362,-134.202 690,-126 703.895,-108.831 721.784,-91.7452 736.606,-78.638"/>
<polygon fill="#f8c5be" stroke="#f8c5be" points="670.488,-151.91 661.089,-157.559 667.637,-156.018 664.785,-160.125 664.785,-160.125 664.785,-160.125 667.637,-156.018 668.482,-162.691 670.488,-151.91 670.488,-151.91"/>
<polygon fill="#f8c5be" stroke="#f8c5be" points="736.934,-78.3526 747.433,-75.1858 740.707,-75.0714 744.48,-71.7902 744.48,-71.7902 744.48,-71.7902 740.707,-75.0714 741.527,-68.3947 736.934,-78.3526 736.934,-78.3526"/>
<text text-anchor="middle" x="716.5" y="-130.3" font-family="Times,serif" font-size="14.00">base_tags</text>
</g>
<!-- Doctor&#45;&gt;ActsAsTaggableOn::Tag -->
<g id="edge6" class="edge"><title>Doctor&#45;&gt;ActsAsTaggableOn::Tag</title>
<path fill="none" stroke="#c26990" d="M676.801,-219.326C701.212,-197.382 726.014,-170.837 743,-142 753.79,-123.683 759.328,-100.175 762.147,-82.2138"/>
<polygon fill="#c26990" stroke="#c26990" points="676.748,-219.373 666.271,-222.611 672.997,-222.68 669.246,-225.986 669.246,-225.986 669.246,-225.986 672.997,-222.68 672.222,-229.362 676.748,-219.373 676.748,-219.373"/>
<polygon fill="#c26990" stroke="#c26990" points="762.175,-82.0086 768,-72.718 762.859,-77.0556 763.543,-72.1025 763.543,-72.1025 763.543,-72.1025 762.859,-77.0556 759.085,-71.4871 762.175,-82.0086 762.175,-82.0086"/>
<text text-anchor="middle" x="761" y="-130.3" font-family="Times,serif" font-size="14.00">tags</text>
</g>
<!-- Organisation -->
<g id="node5" class="node"><title>Organisation</title>
<path fill="none" stroke="black" d="M393.5,-448.5C393.5,-448.5 500.5,-448.5 500.5,-448.5 506.5,-448.5 512.5,-454.5 512.5,-460.5 512.5,-460.5 512.5,-527.5 512.5,-527.5 512.5,-533.5 506.5,-539.5 500.5,-539.5 500.5,-539.5 393.5,-539.5 393.5,-539.5 387.5,-539.5 381.5,-533.5 381.5,-527.5 381.5,-527.5 381.5,-460.5 381.5,-460.5 381.5,-454.5 387.5,-448.5 393.5,-448.5"/>
<text text-anchor="middle" x="447" y="-524.3" font-family="Times,serif" font-size="14.00">Organisation</text>
<polyline fill="none" stroke="black" points="381.5,-516.5 512.5,-516.5 "/>
<text text-anchor="start" x="389.5" y="-501.3" font-family="Times,serif" font-size="14.00">id :integer</text>
<text text-anchor="start" x="389.5" y="-486.3" font-family="Times,serif" font-size="14.00">name :string</text>
<text text-anchor="start" x="389.5" y="-471.3" font-family="Times,serif" font-size="14.00">created_at :datetime</text>
<text text-anchor="start" x="389.5" y="-456.3" font-family="Times,serif" font-size="14.00">updated_at :datetime</text>
</g>
<!-- Organisation&#45;&gt;Doctor -->
<g id="edge7" class="edge"><title>Organisation&#45;&gt;Doctor</title>
<path fill="none" stroke="#13716b" d="M483.268,-441.64C493.56,-427.066 505.187,-410.601 516.966,-393.921"/>
<ellipse fill="none" stroke="#13716b" cx="480.906" cy="-444.985" rx="4.00002" ry="4.00002"/>
<polygon fill="#13716b" stroke="#13716b" points="516.987,-393.891 526.431,-388.319 519.871,-389.807 522.755,-385.723 522.755,-385.723 522.755,-385.723 519.871,-389.807 519.079,-383.127 516.987,-393.891 516.987,-393.891"/>
</g>
<!-- Country -->
<g id="node6" class="node"><title>Country</title>
<path fill="none" stroke="black" d="M542.5,-448.5C542.5,-448.5 649.5,-448.5 649.5,-448.5 655.5,-448.5 661.5,-454.5 661.5,-460.5 661.5,-460.5 661.5,-527.5 661.5,-527.5 661.5,-533.5 655.5,-539.5 649.5,-539.5 649.5,-539.5 542.5,-539.5 542.5,-539.5 536.5,-539.5 530.5,-533.5 530.5,-527.5 530.5,-527.5 530.5,-460.5 530.5,-460.5 530.5,-454.5 536.5,-448.5 542.5,-448.5"/>
<text text-anchor="middle" x="596" y="-524.3" font-family="Times,serif" font-size="14.00">Country</text>
<polyline fill="none" stroke="black" points="530.5,-516.5 661.5,-516.5 "/>
<text text-anchor="start" x="538.5" y="-501.3" font-family="Times,serif" font-size="14.00">id :integer</text>
<text text-anchor="start" x="538.5" y="-486.3" font-family="Times,serif" font-size="14.00">name :string</text>
<text text-anchor="start" x="538.5" y="-471.3" font-family="Times,serif" font-size="14.00">created_at :datetime</text>
<text text-anchor="start" x="538.5" y="-456.3" font-family="Times,serif" font-size="14.00">updated_at :datetime</text>
</g>
<!-- Country&#45;&gt;Doctor -->
<g id="edge8" class="edge"><title>Country&#45;&gt;Doctor</title>
<path fill="none" stroke="#9811f3" d="M596,-440.212C596,-431.375 596,-421.874 596,-412.073"/>
<ellipse fill="none" stroke="#9811f3" cx="596" cy="-444.252" rx="4" ry="4"/>
<polygon fill="#9811f3" stroke="#9811f3" points="596,-411.766 600.5,-401.766 596,-406.766 596,-401.766 596,-401.766 596,-401.766 596,-406.766 591.5,-401.766 596,-411.766 596,-411.766"/>
</g>
<!-- City -->
<g id="node7" class="node"><title>City</title>
<path fill="none" stroke="black" d="M691.5,-441C691.5,-441 798.5,-441 798.5,-441 804.5,-441 810.5,-447 810.5,-453 810.5,-453 810.5,-535 810.5,-535 810.5,-541 804.5,-547 798.5,-547 798.5,-547 691.5,-547 691.5,-547 685.5,-547 679.5,-541 679.5,-535 679.5,-535 679.5,-453 679.5,-453 679.5,-447 685.5,-441 691.5,-441"/>
<text text-anchor="middle" x="745" y="-531.8" font-family="Times,serif" font-size="14.00">City</text>
<polyline fill="none" stroke="black" points="679.5,-524 810.5,-524 "/>
<text text-anchor="start" x="687.5" y="-508.8" font-family="Times,serif" font-size="14.00">id :integer</text>
<text text-anchor="start" x="687.5" y="-493.8" font-family="Times,serif" font-size="14.00">name :string</text>
<text text-anchor="start" x="687.5" y="-478.8" font-family="Times,serif" font-size="14.00">country_id :integer</text>
<text text-anchor="start" x="687.5" y="-463.8" font-family="Times,serif" font-size="14.00">created_at :datetime</text>
<text text-anchor="start" x="687.5" y="-448.8" font-family="Times,serif" font-size="14.00">updated_at :datetime</text>
</g>
<!-- City&#45;&gt;Doctor -->
<g id="edge9" class="edge"><title>City&#45;&gt;Doctor</title>
<path fill="none" stroke="#faaf80" d="M703.342,-434.008C694.41,-421.359 684.689,-407.594 674.867,-393.685"/>
<ellipse fill="none" stroke="#faaf80" cx="705.861" cy="-437.575" rx="4.00002" ry="4.00002"/>
<polygon fill="#faaf80" stroke="#faaf80" points="674.846,-393.655 672.754,-382.89 671.962,-389.571 669.078,-385.486 669.078,-385.486 669.078,-385.486 671.962,-389.571 665.402,-388.082 674.846,-393.655 674.846,-393.655"/>
</g>
<!-- FellowType -->
<g id="node8" class="node"><title>FellowType</title>
<path fill="none" stroke="black" d="M840.5,-448.5C840.5,-448.5 947.5,-448.5 947.5,-448.5 953.5,-448.5 959.5,-454.5 959.5,-460.5 959.5,-460.5 959.5,-527.5 959.5,-527.5 959.5,-533.5 953.5,-539.5 947.5,-539.5 947.5,-539.5 840.5,-539.5 840.5,-539.5 834.5,-539.5 828.5,-533.5 828.5,-527.5 828.5,-527.5 828.5,-460.5 828.5,-460.5 828.5,-454.5 834.5,-448.5 840.5,-448.5"/>
<text text-anchor="middle" x="894" y="-524.3" font-family="Times,serif" font-size="14.00">FellowType</text>
<polyline fill="none" stroke="black" points="828.5,-516.5 959.5,-516.5 "/>
<text text-anchor="start" x="836.5" y="-501.3" font-family="Times,serif" font-size="14.00">id :integer</text>
<text text-anchor="start" x="836.5" y="-486.3" font-family="Times,serif" font-size="14.00">name :string</text>
<text text-anchor="start" x="836.5" y="-471.3" font-family="Times,serif" font-size="14.00">created_at :datetime</text>
<text text-anchor="start" x="836.5" y="-456.3" font-family="Times,serif" font-size="14.00">updated_at :datetime</text>
</g>
<!-- FellowType&#45;&gt;Doctor -->
<g id="edge10" class="edge"><title>FellowType&#45;&gt;Doctor</title>
<path fill="none" stroke="#36717a" d="M824.035,-443.461C780.162,-412.396 723.422,-372.222 677.518,-339.719"/>
<ellipse fill="none" stroke="#36717a" cx="827.537" cy="-445.941" rx="4.00002" ry="4.00002"/>
<polygon fill="#36717a" stroke="#36717a" points="677.239,-339.522 671.678,-330.07 673.159,-336.632 669.078,-333.743 669.078,-333.743 669.078,-333.743 673.159,-336.632 666.477,-337.416 677.239,-339.522 677.239,-339.522"/>
</g>
</g>
</svg>
